<?xml version="1.0" standalone="no"?>
<!DOCTYPE svg PUBLIC "-//W3C//DTD SVG 20010904//EN"
 "http://www.w3.org/TR/2001/REC-SVG-20010904/DTD/svg10.dtd">
<svg version="1.0" xmlns="http://www.w3.org/2000/svg"
 width="64.000000pt" height="64.000000pt" viewBox="0 0 64.000000 64.000000"
 preserveAspectRatio="xMidYMid meet">
<metadata>
Created by potrace 1.15, written by Peter Selinger 2001-2017
</metadata>
<g transform="translate(0.000000,64.000000) scale(0.100000,-0.100000)"
fill="#000000" stroke="none">
<path d="M220 623 c-265 -93 -297 -447 -52 -581 104 -57 241 -53 322 8 41 31
15 34 -44 5 -43 -21 -69 -27 -124 -27 -112 0 -202 52 -260 151 -24 41 -27 56
-27 141 0 85 3 100 27 141 29 50 79 98 131 126 24 14 55 18 127 18 85 0 100
-3 141 -27 99 -58 151 -148 151 -260 0 -54 -6 -81 -26 -122 -29 -59 -31 -66
-16 -66 5 0 22 24 37 53 24 45 28 64 28 137 0 79 -3 90 -36 150 -76 138 -236
203 -379 153z"/>
<path d="M353 408 l-72 -72 -29 27 c-15 15 -33 27 -38 27 -5 0 -28 -18 -49
-40 l-39 -40 76 -77 77 -77 118 117 118 117 -45 45 -45 45 -72 -72z m105 9
l22 -23 -100 -99 -100 -99 -60 59 -60 59 25 25 25 25 33 -32 33 -32 69 70 c38
39 74 70 80 70 7 0 21 -10 33 -23z"/>
<path d="M530 100 c0 -5 5 -10 10 -10 6 0 10 5 10 10 0 6 -4 10 -10 10 -5 0
-10 -4 -10 -10z"/>
</g>
</svg>
