<?xml version="1.0" standalone="no"?>
<!DOCTYPE svg PUBLIC "-//W3C//DTD SVG 20010904//EN"
 "http://www.w3.org/TR/2001/REC-SVG-20010904/DTD/svg10.dtd">
<svg version="1.0" xmlns="http://www.w3.org/2000/svg"
 width="52.000000pt" height="64.000000pt" viewBox="0 0 52.000000 64.000000"
 preserveAspectRatio="xMidYMid meet">
<metadata>
Created by potrace 1.15, written by Peter Selinger 2001-2017
</metadata>
<g transform="translate(0.000000,64.000000) scale(0.100000,-0.100000)"
fill="#000000" stroke="none">
<path d="M147 608 c-11 -15 -35 -33 -54 -39 -37 -12 -53 -34 -53 -74 0 -14
-10 -43 -22 -64 l-22 -38 22 -37 c12 -20 22 -50 22 -67 0 -16 9 -38 21 -50
l20 -20 -36 -61 c-20 -34 -35 -68 -33 -76 2 -9 18 -20 37 -25 19 -4 43 -19 53
-33 11 -13 25 -24 33 -24 7 0 34 36 60 80 31 53 53 80 65 80 12 0 34 -27 65
-80 26 -44 53 -80 60 -80 8 0 22 11 33 24 10 14 34 29 53 33 40 11 47 32 23
67 -23 36 -38 33 -19 -4 19 -38 20 -37 -12 -45 -16 -3 -40 -18 -54 -31 l-26
-25 -37 61 c-20 34 -36 63 -36 66 0 2 8 4 17 4 9 0 32 15 51 33 l33 32 18 -22
c21 -25 35 -20 20 8 -7 14 -5 23 11 39 11 11 20 33 20 49 0 17 9 46 21 65 l21
36 -21 40 c-12 22 -21 54 -21 70 0 32 -30 70 -56 70 -8 0 -28 15 -45 32 -29
32 -31 33 -120 33 -89 1 -92 0 -112 -27z m220 -20 c15 -14 42 -32 58 -39 24
-12 31 -22 35 -54 3 -22 14 -54 25 -72 18 -31 18 -32 0 -60 -11 -15 -22 -46
-25 -68 -4 -33 -11 -43 -40 -57 -19 -10 -44 -28 -56 -41 -19 -22 -29 -24 -103
-24 -75 0 -84 2 -109 26 -16 14 -42 34 -60 43 -26 14 -32 23 -32 49 0 17 -10
47 -22 66 -21 35 -21 36 -2 67 10 17 21 49 24 71 4 33 11 43 40 56 19 10 45
28 57 41 20 21 31 24 102 23 72 -1 83 -3 108 -27z m-222 -408 c16 -16 37 -30
47 -30 10 0 18 -2 18 -4 0 -3 -16 -32 -36 -66 l-37 -61 -26 25 c-14 13 -38 28
-53 31 -16 4 -28 9 -28 12 0 16 68 123 78 123 5 0 21 -13 37 -30z"/>
<path d="M211 569 c-81 -24 -131 -92 -131 -177 0 -28 5 -54 10 -57 6 -4 10 16
10 53 0 45 6 67 23 93 24 37 97 79 137 79 40 0 113 -42 137 -79 16 -24 23 -49
23 -83 0 -149 -161 -221 -271 -121 -24 22 -39 30 -39 21 0 -35 91 -88 150 -88
36 0 96 23 123 48 32 28 57 89 57 135 0 117 -119 208 -229 176z"/>
<path d="M228 475 c-7 -15 -24 -29 -42 -33 -37 -10 -45 -36 -20 -63 12 -13 17
-32 16 -53 -4 -39 15 -51 53 -34 19 8 31 8 50 0 38 -17 57 -5 53 34 -1 21 4
40 16 53 25 27 17 53 -20 63 -18 4 -35 18 -42 33 -7 15 -20 25 -32 25 -12 0
-25 -10 -32 -25z m53 -19 c8 -16 23 -26 46 -31 l35 -6 -21 -23 c-13 -14 -21
-35 -21 -59 0 -35 -12 -48 -25 -27 -8 13 -62 13 -70 0 -13 -21 -25 -8 -25 27
0 24 -8 45 -21 59 l-21 23 35 6 c23 5 38 15 46 31 6 13 15 24 21 24 6 0 15
-11 21 -24z"/>
</g>
</svg>
