<?xml version="1.0" standalone="no"?>
<!DOCTYPE svg PUBLIC "-//W3C//DTD SVG 20010904//EN"
 "http://www.w3.org/TR/2001/REC-SVG-20010904/DTD/svg10.dtd">
<svg version="1.0" xmlns="http://www.w3.org/2000/svg"
 width="64.000000pt" height="60.000000pt" viewBox="0 0 64.000000 60.000000"
 preserveAspectRatio="xMidYMid meet">
<metadata>
Created by potrace 1.15, written by Peter Selinger 2001-2017
</metadata>
<g transform="translate(0.000000,60.000000) scale(0.100000,-0.100000)"
fill="#000000" stroke="none">
<path d="M67 572 c-21 -23 -22 -82 -2 -108 21 -28 18 -44 -9 -44 -37 0 -56
-25 -56 -76 l0 -44 86 0 c54 0 83 4 79 10 -3 6 -38 10 -76 10 l-70 0 3 38 c3
35 5 37 41 40 31 3 37 7 37 26 0 12 -7 31 -15 42 -15 20 -19 61 -9 88 8 22 80
22 88 0 10 -27 6 -68 -9 -88 -8 -11 -15 -30 -15 -43 0 -20 5 -23 34 -23 42 0
54 -15 32 -39 -10 -11 -16 -36 -16 -69 l0 -52 130 0 130 0 0 52 c0 33 -6 58
-16 69 -22 24 -10 39 32 39 29 0 34 3 34 23 0 13 -7 32 -15 43 -15 20 -19 61
-9 88 8 22 80 22 88 0 10 -27 6 -68 -9 -88 -8 -11 -15 -30 -15 -42 0 -19 6
-23 38 -26 35 -3 37 -5 40 -40 l3 -38 -70 0 c-38 0 -73 -4 -76 -10 -4 -6 25
-10 79 -10 l86 0 0 44 c0 51 -19 76 -56 76 -27 0 -30 16 -9 44 21 28 19 89 -3
109 -25 23 -85 22 -105 -1 -21 -23 -22 -82 -2 -108 22 -28 18 -44 -10 -44 -14
0 -33 -9 -42 -20 -19 -21 -53 -27 -53 -9 0 6 9 22 20 36 38 49 14 142 -37 143
-7 0 -13 -4 -13 -10 0 -5 7 -10 15 -10 37 0 47 -82 14 -124 -24 -31 -22 -60 6
-64 64 -9 65 -10 65 -57 l0 -45 -110 0 -110 0 0 45 c0 47 1 48 65 57 28 4 30
33 6 64 -33 42 -23 124 14 124 8 0 15 5 15 10 0 6 -6 10 -13 10 -50 0 -73 -86
-38 -143 11 -19 21 -37 21 -41 0 -14 -38 -5 -55 14 -10 11 -29 20 -42 20 -26
0 -29 16 -8 44 21 28 19 89 -3 109 -25 23 -85 22 -105 -1z"/>
<path d="M96 232 c-12 -23 -24 -32 -41 -32 -33 0 -38 -14 -14 -36 16 -14 19
-26 14 -53 -6 -32 -5 -33 17 -26 31 10 59 10 81 1 14 -7 17 -3 17 26 0 22 7
42 20 53 23 21 18 35 -15 35 -15 0 -30 11 -43 32 l-20 31 -16 -31z m62 -52
c12 0 13 -3 4 -12 -7 -7 -12 -21 -12 -33 0 -17 -6 -21 -35 -21 -24 0 -35 5
-35 15 0 8 -7 23 -17 33 -15 17 -15 18 1 18 9 0 24 9 33 20 17 19 17 19 30 0
8 -11 22 -20 31 -20z"/>
<path d="M515 230 c-10 -20 -23 -30 -39 -30 -34 0 -39 -11 -15 -36 17 -18 20
-30 15 -55 -6 -29 -4 -31 17 -24 30 10 58 10 80 1 14 -7 17 -3 17 26 0 22 7
42 20 53 23 21 18 35 -15 35 -17 0 -29 9 -40 30 -9 17 -18 30 -20 30 -2 0 -11
-13 -20 -30z m63 -50 c12 0 13 -3 4 -12 -7 -7 -12 -21 -12 -33 0 -17 -6 -21
-35 -21 -24 0 -35 5 -35 15 0 8 -7 23 -17 33 -15 17 -15 18 1 18 9 0 24 9 34
20 l17 21 14 -21 c7 -11 21 -20 29 -20z"/>
<path d="M305 160 c-11 -21 -23 -30 -40 -30 -33 0 -38 -14 -14 -36 16 -14 19
-26 14 -53 -6 -32 -5 -33 17 -26 31 10 59 10 81 1 14 -7 17 -3 17 26 0 22 7
42 20 53 23 21 18 35 -15 35 -17 0 -29 9 -40 30 -9 17 -18 30 -20 30 -2 0 -11
-13 -20 -30z m63 -50 c12 0 13 -3 4 -12 -7 -7 -12 -21 -12 -33 0 -17 -6 -21
-35 -21 -24 0 -35 5 -35 15 0 8 -7 23 -17 33 -15 17 -15 18 5 18 12 0 26 9 33
21 l11 21 14 -21 c9 -12 23 -21 32 -21z"/>
</g>
</svg>
