<?xml version="1.0" standalone="no"?>
<!DOCTYPE svg PUBLIC "-//W3C//DTD SVG 20010904//EN"
 "http://www.w3.org/TR/2001/REC-SVG-20010904/DTD/svg10.dtd">
<svg version="1.0" xmlns="http://www.w3.org/2000/svg"
 width="974.000000pt" height="738.000000pt" viewBox="0 0 974.000000 738.000000"
 preserveAspectRatio="xMidYMid meet">
<metadata>
Created by potrace 1.15, written by Peter Selinger 2001-2017
</metadata>
<g transform="translate(0.000000,738.000000) scale(0.100000,-0.100000)"
fill="#000000" stroke="none">
<path d="M8045 7374 c-169 -23 -338 -138 -411 -278 -20 -39 -34 -55 -44 -52
-8 3 -41 15 -74 26 -253 91 -520 -7 -659 -241 -53 -90 -78 -176 -84 -294 -15
-294 150 -586 440 -777 50 -32 198 -113 329 -179 227 -114 380 -200 457 -257
32 -23 220 -173 262 -209 14 -12 19 3 48 149 50 251 91 367 249 704 148 316
192 464 192 652 0 412 -257 731 -610 755 -36 3 -78 3 -95 1z m-621 -481 l28
-5 -43 -25 c-202 -114 -263 -382 -143 -620 71 -142 266 -344 502 -520 110 -83
120 -93 52 -54 -30 18 -145 77 -255 133 -110 55 -236 124 -281 154 -185 122
-304 309 -320 506 -15 170 70 334 207 404 81 40 147 48 253 27z"/>
<path d="M4605 6654 c-16 -2 -66 -9 -110 -15 -112 -14 -285 -61 -407 -108
-221 -87 -416 -213 -587 -376 -173 -167 -292 -328 -390 -529 -50 -102 -131
-323 -131 -358 0 -9 -3 -19 -7 -21 -5 -3 -51 24 -103 59 -334 224 -771 339
-1156 305 -855 -76 -1529 -689 -1675 -1521 -75 -430 3 -858 237 -1297 120
-224 255 -406 438 -588 252 -251 498 -418 921 -627 256 -126 370 -175 1015
-433 582 -233 816 -335 1130 -491 347 -174 614 -333 899 -535 85 -60 158 -109
161 -109 4 0 31 93 59 207 160 636 387 1161 921 2138 558 1021 728 1436 802
1965 19 140 17 498 -5 635 -37 241 -109 478 -202 670 -255 528 -752 902 -1335
1006 -110 20 -399 34 -475 23z m-2530 -1400 c50 -7 110 -19 134 -26 l45 -13
-70 -29 c-286 -119 -536 -328 -706 -592 -88 -137 -171 -353 -204 -529 -28
-146 -25 -423 4 -558 95 -431 358 -821 857 -1266 405 -362 818 -648 1700
-1179 357 -215 466 -286 523 -340 60 -56 28 -46 -70 21 -416 288 -884 519
-1743 860 -630 250 -880 364 -1133 516 -339 204 -597 449 -774 734 -114 183
-214 426 -260 629 -20 89 -23 129 -23 298 1 162 5 212 23 297 116 533 488 952
997 1122 227 75 453 93 700 55z"/>
<path d="M7565 4284 c-177 -39 -321 -120 -461 -259 -113 -112 -173 -202 -234
-347 -84 -201 -117 -389 -106 -602 11 -236 51 -388 222 -844 212 -564 257
-726 309 -1122 9 -69 18 -126 19 -127 2 -2 61 38 131 88 288 204 547 334 994
499 515 190 778 338 966 542 155 170 279 409 314 612 14 77 14 265 0 342 -43
248 -188 464 -389 584 -36 22 -108 54 -160 72 -89 30 -103 32 -235 33 -150 0
-210 -11 -329 -61 -98 -41 -90 -43 -110 28 -40 144 -158 319 -280 413 -71 55
-199 119 -281 141 -87 23 -283 27 -370 8z m277 -229 c113 -23 193 -68 278
-154 41 -42 84 -91 94 -110 l19 -34 -29 8 c-213 54 -333 42 -509 -48 -94 -48
-229 -177 -284 -269 -168 -288 -185 -689 -56 -1408 45 -254 48 -276 30 -210
-43 152 -86 279 -180 530 -159 426 -197 560 -211 750 -19 272 86 576 257 747
173 172 383 243 591 198z m-435 -2307 c-3 -8 -6 -5 -6 6 -1 11 2 17 5 13 3 -3
4 -12 1 -19z m10 -50 c-3 -7 -5 -2 -5 12 0 14 2 19 5 13 2 -7 2 -19 0 -25z
m10 -50 c-3 -7 -5 -2 -5 12 0 14 2 19 5 13 2 -7 2 -19 0 -25z m10 -50 c-3 -7
-5 -2 -5 12 0 14 2 19 5 13 2 -7 2 -19 0 -25z m10 -70 c-3 -7 -5 -2 -5 12 0
14 2 19 5 13 2 -7 2 -19 0 -25z"/>
</g>
</svg>
