<?xml version="1.0" standalone="no"?>
<!DOCTYPE svg PUBLIC "-//W3C//DTD SVG 20010904//EN"
 "http://www.w3.org/TR/2001/REC-SVG-20010904/DTD/svg10.dtd">
<svg version="1.0" xmlns="http://www.w3.org/2000/svg">
    <symbol id="logo">
        <g transform="translate(0.000000,68.000000) scale(0.100000,-0.100000)">
            <path d="M240 661 c-89 -29 -174 -104 -213 -189 -33 -72 -31 -198 4 -273 34
            -73 96 -134 168 -167 45 -22 71 -26 136 -27 71 0 88 4 147 33 81 40 139 102
            169 181 17 45 20 71 17 136 -5 94 -36 163 -99 225 -64 62 -120 85 -219 87 -47
            1 -96 -1 -110 -6z m296 -156 c-2 -7 -26 -17 -52 -21 -43 -6 -46 -8 -29 -20 10
            -8 29 -14 42 -14 21 0 22 -3 13 -20 -13 -24 -48 -26 -76 -5 -12 9 -42 14 -82
            15 -59 0 -63 -1 -73 -27 -23 -59 10 -163 54 -171 11 -2 14 2 10 17 -4 15 5 31
            30 56 39 39 79 46 109 18 17 -15 17 -17 -18 -41 -30 -20 -35 -28 -30 -51 19
            -79 19 -108 -2 -129 -27 -27 -92 -45 -164 -46 -102 -2 -127 46 -128 236 0 122
            17 185 54 193 11 3 93 16 181 28 166 24 177 22 161 -18z"/>
        </g>
    </symbol>
    <symbol id="facebook">
            <g transform="translate(0.000000,980.000000) scale(0.100000,-0.100000)">
                <path d="M1135 9784 c-299 -47 -570 -191 -779 -415 -169 -182 -282 -405 -333
                -657 -17 -82 -18 -288 -18 -3807 0 -4051 -4 -3772 57 -3964 68 -215 173 -387
                332 -547 188 -188 394 -300 671 -367 l90 -21 2188 -3 2187 -3 0 2095 0 2095
                -420 0 -420 0 0 725 0 725 420 0 420 0 0 463 c0 645 15 840 85 1112 117 459
                374 790 749 966 174 81 406 145 615 169 49 6 405 10 829 10 l742 0 0 -720 0
                -720 -447 0 c-485 0 -533 -4 -632 -55 -104 -52 -164 -130 -197 -256 -14 -54
                -18 -135 -21 -516 l-5 -453 663 0 662 0 -6 -47 c-3 -27 -38 -353 -78 -725
                l-73 -678 -583 0 -583 0 0 -2096 0 -2095 693 4 c661 3 696 4 785 24 278 64
                487 177 678 367 193 194 312 417 371 696 17 81 18 267 18 3810 0 3533 -1 3730
                -18 3812 -52 256 -168 480 -345 669 -187 198 -412 325 -697 392 l-90 22 -3710
                1 c-3133 2 -3724 0 -3800 -12z"/>
            </g>
        
    </symbol>
    <symbol id="twitter">
            <g transform="translate(0.000000,319.000000) scale(0.100000,-0.100000)">
                <path d="M2390 3171 c-205 -58 -331 -141 -431 -285 -99 -141 -145 -321 -136
                -538 l5 -128 -85 0 c-381 0 -894 270 -1360 715 l-123 117 -21 -49 c-12 -26
                -32 -91 -46 -143 -35 -129 -37 -335 -5 -451 37 -136 103 -249 211 -361 l64
                -68 -34 0 c-78 0 -171 35 -258 97 l-24 18 6 -95 c19 -257 124 -479 287 -602
                60 -45 195 -112 250 -123 30 -7 32 -9 15 -15 -42 -16 -190 -22 -234 -10 -24 6
                -46 9 -49 6 -9 -10 27 -127 60 -191 67 -134 163 -228 303 -296 81 -39 215 -79
                267 -79 15 0 28 -4 28 -8 0 -11 -107 -100 -169 -140 -243 -156 -577 -223 -858
                -172 -24 4 -43 4 -43 0 0 -3 17 -20 38 -37 288 -229 687 -346 1127 -330 245
                10 455 46 725 127 166 50 279 104 435 208 460 305 778 751 910 1277 49 194 66
                327 72 557 l6 207 81 64 c81 65 202 182 231 225 l16 22 -181 0 -182 0 57 46
                c116 95 225 258 241 360 3 25 4 47 1 50 -3 3 -36 -14 -73 -37 -148 -90 -325
                -169 -382 -169 -15 0 -47 21 -90 61 -120 110 -295 176 -487 184 -77 4 -115 0
                -165 -14z"/>
            </g>
    </symbol>
    <symbol id="linkedin">
            <g transform="translate(0.000000,2000.000000) scale(0.100000,-0.100000)">
                <path d="M1350 19993 c-385 -40 -760 -235 -1000 -518 -169 -200 -270 -405
                -326 -665 -18 -82 -19 -347 -19 -8810 0 -8463 1 -8728 19 -8810 42 -194 105
                -348 202 -497 225 -347 556 -571 982 -666 l97 -21 8650 -4 c6164 -2 8681 0
                8758 8 362 36 694 200 949 468 134 142 232 297 304 484 l34 87 0 8910 0 8909
                -31 89 c-78 222 -191 397 -373 579 -210 209 -425 337 -693 410 -212 58 444 54
                -8913 52 -4733 -1 -8621 -3 -8640 -5z m3327 -2788 c560 -79 1036 -419 1297
                -926 434 -839 108 -1836 -737 -2261 -342 -171 -776 -227 -1146 -147 -504 109
                -953 456 -1183 913 -275 548 -241 1187 90 1681 207 310 515 542 879 664 105
                35 273 73 373 84 89 10 334 5 427 -8z m9297 -4445 c531 -45 972 -156 1356
                -341 271 -130 486 -284 700 -498 219 -220 360 -415 505 -702 261 -514 408
                -1108 480 -1936 39 -451 40 -551 40 -3488 l0 -2850 -1470 0 -1470 0 -6 2690
                c-6 2750 -6 2751 -44 3045 -103 782 -402 1229 -940 1405 -364 119 -904 106
                -1285 -30 -41 -15 -122 -51 -180 -81 -445 -227 -717 -677 -825 -1364 -51 -329
                -49 -195 -52 -3002 l-4 -2608 -1499 0 -1500 0 0 4750 0 4750 1415 0 1415 0 0
                -640 0 -640 28 0 c23 0 32 9 55 55 121 230 350 513 575 708 536 465 1203 730
                1977 787 140 10 554 4 729 -10z m-8086 -5037 l-3 -4778 -1470 0 -1470 0 -3
                4778 -2 4777 1475 0 1475 0 -2 -4777z"/>
            </g>
    </symbol>
    <symbol id="github">
            <g transform="translate(0.000000,450.000000) scale(0.100000,-0.100000)">
                <path d="M2045 4478 c-249 -28 -524 -110 -757 -225 -459 -227 -813 -582 -1043
                -1045 -252 -507 -305 -1096 -148 -1653 190 -675 726 -1255 1396 -1511 117 -45
                177 -46 218 -5 l29 29 0 222 0 222 -32 -6 c-18 -3 -85 -9 -148 -12 -214 -12
                -360 36 -486 161 -61 61 -79 88 -136 205 -71 146 -139 233 -227 292 -70 47
                -101 79 -101 104 0 19 8 25 42 35 89 24 216 -19 315 -105 28 -25 76 -83 106
                -128 30 -46 75 -102 100 -125 123 -114 288 -140 485 -78 l80 25 16 70 c19 85
                53 153 101 202 42 43 54 36 -101 62 -185 32 -381 105 -501 187 -264 181 -396
                479 -397 899 -1 152 2 186 22 260 29 107 96 248 156 325 26 32 44 64 42 69
                -33 75 -41 129 -40 261 0 113 4 156 23 225 32 121 32 120 100 120 121 0 324
                -76 492 -185 l72 -46 131 25 c177 35 284 46 456 46 172 0 279 -11 455 -45
                l131 -26 92 56 c179 108 361 175 473 175 69 0 68 1 100 -120 33 -120 33 -346
                2 -434 l-21 -59 51 -66 c62 -81 120 -200 149 -306 18 -69 21 -106 22 -265 0
                -338 -69 -569 -230 -765 -128 -157 -362 -276 -642 -326 -64 -11 -127 -23 -140
                -25 l-23 -5 29 -37 c39 -49 77 -125 98 -198 15 -51 18 -114 21 -449 2 -214 5
                -399 8 -411 9 -39 54 -74 97 -74 87 0 396 141 589 269 148 98 247 181 380 317
                341 350 553 784 626 1283 20 142 23 483 5 621 -87 656 -451 1238 -1002 1603
                -294 194 -667 328 -1022 366 -114 13 -399 12 -513 -1z"/>
            </g>
    </symbol>
    <symbol id="user">
        <g transform="translate(0.000000,2503.000000) scale(0.100000,-0.100000)">
            <path d="M12050 25000 c-1333 -92 -2558 -512 -3640 -1247 -2320 -1579 -3527
            -4330 -3119 -7108 227 -1542 942 -2965 2049 -4076 1381 -1385 3218 -2149 5170
            -2149 2264 0 4375 1036 5771 2832 649 834 1124 1842 1349 2863 225 1020 235
            2034 30 3055 -506 2520 -2342 4614 -4774 5446 -569 195 -1098 307 -1731 370
            -187 18 -909 27 -1105 14z"/>
            <path d="M6835 11089 c-1835 -983 -3427 -2436 -4601 -4199 -1221 -1833 -1959
            -3924 -2169 -6145 -18 -199 -45 -598 -45 -682 l0 -63 12490 0 12490 0 0 68 c0
            84 -16 330 -36 567 -147 1718 -610 3358 -1380 4885 -1074 2131 -2701 3919
            -4698 5165 -219 137 -580 344 -757 435 l-125 63 -116 -96 c-432 -354 -955
            -696 -1483 -968 -1071 -551 -2215 -860 -3438 -930 -237 -13 -896 -7 -1102 11
            -1163 99 -2174 379 -3166 876 -580 290 -1169 673 -1617 1051 -35 29 -66 53
            -70 53 -4 0 -83 -41 -177 -91z"/>
        </g>
    </symbol>
    <symbol id="envelope">
            <g transform="translate(0.000000,483.000000) scale(0.100000,-0.100000)">
                <path d="M376 4809 c-134 -33 -301 -126 -282 -157 4 -7 735 -643 1624 -1414
                889 -771 1645 -1428 1680 -1459 106 -99 203 -110 316 -39 91 58 3445 2872
                3454 2897 6 20 -93 109 -152 137 -126 60 110 56 -3371 55 -3128 0 -3192 -1
                -3269 -20z"/>
                <path d="M6640 3679 c-360 -303 -904 -761 -1208 -1016 -304 -256 -552 -469
                -550 -474 2 -5 539 -433 1193 -953 733 -581 1193 -939 1197 -933 27 43 29 194
                26 2035 l-3 1893 -655 -552z"/>
                <path d="M1 2313 c1 -1881 3 -1999 32 -2006 10 -3 2337 1843 2337 1853 0 6
                -2142 1870 -2341 2038 l-29 24 1 -1909z"/>
                <path d="M4112 1560 c-268 -223 -410 -335 -445 -350 -67 -29 -150 -25 -200 11
                -20 13 -186 155 -371 316 -184 161 -343 298 -354 304 -16 10 -156 -98 -1163
                -896 -629 -499 -1153 -916 -1164 -926 -19 -19 38 -19 3230 -19 3197 0 3249 0
                3230 19 -38 36 -2356 1871 -2363 1870 -4 0 -184 -148 -400 -329z"/>
            </g>
    </symbol>
    <symbol id="address">
        <g transform="translate(0.000000,747.000000) scale(0.100000,-0.100000)">
            <path d="M2570 7463 c-120 -9 -347 -48 -484 -82 -464 -119 -883 -355 -1234
            -695 -451 -438 -719 -964 -819 -1606 -14 -89 -18 -175 -18 -380 0 -205 4 -291
            18 -380 72 -466 233 -865 496 -1235 35 -50 475 -720 978 -1490 503 -770 930
            -1419 949 -1441 66 -82 183 -142 294 -151 133 -11 263 39 352 136 44 48 1834
            2768 1902 2892 12 21 51 82 87 136 468 693 592 1596 329 2393 -381 1151 -1457
            1923 -2660 1908 -80 -1 -165 -3 -190 -5z m540 -1186 c135 -32 213 -59 330
            -113 267 -125 519 -360 668 -622 394 -690 187 -1574 -473 -2017 -404 -270
            -925 -334 -1375 -168 -499 184 -861 604 -976 1133 -26 120 -27 467 -1 590 134
            637 627 1112 1262 1215 143 23 430 14 565 -18z"/>
        </g>
    </symbol>
    <symbol id="phonetalk">
        <g transform="translate(0.000000,976.000000) scale(0.100000,-0.100000)">
            <path d="M1245 9754 c-568 -14 -993 -77 -1088 -162 -125 -111 -181 -479 -147
            -960 75 -1054 474 -2490 970 -3491 869 -1754 2121 -3070 3795 -3990 186 -103
            593 -304 740 -366 1467 -622 3531 -967 4025 -673 46 28 60 43 87 98 85 170
            127 595 127 1270 0 538 -22 859 -76 1110 -41 192 -70 235 -203 296 -118 54
            -217 73 -470 89 -475 29 -723 65 -1580 226 l-530 99 -535 -532 c-294 -293
            -596 -593 -671 -666 l-136 -134 -253 127 c-346 173 -417 217 -682 423 -626
            486 -1678 1545 -2147 2162 -151 198 -204 286 -352 582 l-143 287 74 78 c41 43
            339 347 663 675 l588 597 -100 538 c-163 874 -201 1148 -221 1576 -12 254 -28
            346 -77 440 -44 84 -94 128 -198 177 -133 62 -290 92 -574 109 -180 11 -693
            19 -886 15z"/>
            <path d="M5094 9750 c-92 -10 -134 -35 -166 -100 -15 -30 -32 -84 -38 -120 -5
            -36 -10 -232 -10 -436 l0 -371 138 -27 c451 -90 827 -171 946 -206 367 -107
            754 -294 1076 -518 399 -279 827 -721 1045 -1081 116 -192 253 -486 344 -741
            73 -205 118 -387 206 -820 48 -234 89 -433 91 -442 5 -17 39 -18 541 -18 l535
            0 -6 33 c-3 17 -31 200 -61 405 -31 205 -64 416 -75 468 -127 618 -400 1245
            -788 1814 -445 653 -1070 1240 -1632 1534 -677 353 -1761 670 -2146 626z"/>
            <path d="M4882 7178 c4 -419 5 -435 27 -503 18 -56 33 -80 75 -121 56 -55 108
            -77 296 -129 52 -14 149 -52 215 -84 204 -98 357 -213 545 -407 218 -226 331
            -419 399 -681 22 -84 50 -171 62 -195 27 -55 74 -105 123 -130 84 -43 150 -50
            579 -55 405 -5 407 -5 407 15 0 47 -112 616 -144 732 -139 507 -472 1007 -901
            1353 -291 235 -657 420 -1005 507 -94 24 -645 130 -673 130 -5 0 -7 -195 -5
            -432z"/>
        </g>
    </symbol>
    <symbol id="phone">
        <g transform="translate(0.000000,934.000000) scale(0.100000,-0.100000)">
            <path d="M1895 9315 c-146 -40 -360 -135 -495 -221 -194 -123 -560 -425 -736
            -605 -208 -214 -353 -412 -470 -641 -158 -310 -213 -606 -166 -883 110 -638
            658 -1711 1386 -2710 880 -1209 1844 -2118 3123 -2943 743 -479 1523 -879
            2175 -1113 158 -56 397 -124 552 -156 117 -24 152 -27 336 -27 226 0 310 12
            500 74 450 148 1052 610 1404 1076 151 202 232 353 278 520 28 103 31 305 5
            373 -34 89 -111 187 -281 356 -176 175 -306 288 -604 519 -376 292 -891 634
            -1158 768 l-162 81 -102 5 c-319 15 -448 -117 -823 -843 -164 -319 -203 -379
            -300 -472 -201 -190 -445 -254 -672 -174 -95 33 -484 263 -790 466 -497 329
            -850 620 -1311 1080 -536 535 -870 966 -1093 1410 -81 161 -92 194 -98 300 -7
            116 14 214 67 322 82 165 166 221 595 394 289 115 627 312 757 440 134 131
            166 268 104 448 -81 238 -344 725 -587 1086 -286 427 -497 670 -738 850 -107
            80 -336 199 -422 220 -78 18 -207 18 -274 0z"/>
        </g>
    </symbol>
    <symbol id="menubar">
        <g transform="translate(0.000000,1250.000000) scale(0.100000,-0.100000)">
            <path d="M1065 12485 c-410 -65 -747 -311 -933 -680 -91 -180 -127 -337 -127
            -555 0 -111 5 -179 18 -240 55 -258 162 -455 347 -640 185 -185 381 -291 640
            -347 82 -17 374 -18 7740 -18 7366 0 7658 1 7740 18 243 52 443 156 616 320
            113 107 194 217 265 362 198 405 166 864 -89 1250 -61 91 -238 268 -328 328
            -139 91 -281 152 -454 194 -72 17 -385 18 -7715 19 -6161 2 -7655 0 -7720 -11z"/>
            <path d="M1065 7485 c-410 -65 -747 -311 -933 -680 -91 -180 -127 -337 -127
            -555 0 -111 5 -179 18 -240 55 -258 162 -455 347 -640 185 -185 381 -291 640
            -347 82 -17 374 -18 7740 -18 7366 0 7658 1 7740 18 243 52 443 156 616 320
            113 107 194 217 265 362 198 405 166 864 -89 1250 -61 91 -238 268 -328 328
            -139 91 -281 152 -454 194 -72 17 -385 18 -7715 19 -6161 2 -7655 0 -7720 -11z"/>
            <path d="M1065 2485 c-410 -65 -747 -311 -933 -680 -91 -180 -127 -337 -127
            -555 0 -111 5 -179 18 -240 55 -258 162 -455 347 -640 185 -185 381 -291 640
            -347 82 -17 374 -18 7740 -18 7366 0 7658 1 7740 18 243 52 443 156 616 320
            113 107 194 217 265 362 198 405 166 864 -89 1250 -61 91 -238 268 -328 328
            -139 91 -281 152 -454 194 -72 17 -385 18 -7715 19 -6161 2 -7655 0 -7720 -11z"/>
        </g>
    </symbol>
    <symbol id="emblem">
        <g transform="translate(0.000000,64.000000) scale(0.100000,-0.100000)">
            <path d="M147 608 c-11 -15 -35 -33 -54 -39 -37 -12 -53 -34 -53 -74 0 -14
            -10 -43 -22 -64 l-22 -38 22 -37 c12 -20 22 -50 22 -67 0 -16 9 -38 21 -50
            l20 -20 -36 -61 c-20 -34 -35 -68 -33 -76 2 -9 18 -20 37 -25 19 -4 43 -19 53
            -33 11 -13 25 -24 33 -24 7 0 34 36 60 80 31 53 53 80 65 80 12 0 34 -27 65
            -80 26 -44 53 -80 60 -80 8 0 22 11 33 24 10 14 34 29 53 33 40 11 47 32 23
            67 -23 36 -38 33 -19 -4 19 -38 20 -37 -12 -45 -16 -3 -40 -18 -54 -31 l-26
            -25 -37 61 c-20 34 -36 63 -36 66 0 2 8 4 17 4 9 0 32 15 51 33 l33 32 18 -22
            c21 -25 35 -20 20 8 -7 14 -5 23 11 39 11 11 20 33 20 49 0 17 9 46 21 65 l21
            36 -21 40 c-12 22 -21 54 -21 70 0 32 -30 70 -56 70 -8 0 -28 15 -45 32 -29
            32 -31 33 -120 33 -89 1 -92 0 -112 -27z m220 -20 c15 -14 42 -32 58 -39 24
            -12 31 -22 35 -54 3 -22 14 -54 25 -72 18 -31 18 -32 0 -60 -11 -15 -22 -46
            -25 -68 -4 -33 -11 -43 -40 -57 -19 -10 -44 -28 -56 -41 -19 -22 -29 -24 -103
            -24 -75 0 -84 2 -109 26 -16 14 -42 34 -60 43 -26 14 -32 23 -32 49 0 17 -10
            47 -22 66 -21 35 -21 36 -2 67 10 17 21 49 24 71 4 33 11 43 40 56 19 10 45
            28 57 41 20 21 31 24 102 23 72 -1 83 -3 108 -27z m-222 -408 c16 -16 37 -30
            47 -30 10 0 18 -2 18 -4 0 -3 -16 -32 -36 -66 l-37 -61 -26 25 c-14 13 -38 28
            -53 31 -16 4 -28 9 -28 12 0 16 68 123 78 123 5 0 21 -13 37 -30z"/>
            <path d="M211 569 c-81 -24 -131 -92 -131 -177 0 -28 5 -54 10 -57 6 -4 10 16
            10 53 0 45 6 67 23 93 24 37 97 79 137 79 40 0 113 -42 137 -79 16 -24 23 -49
            23 -83 0 -149 -161 -221 -271 -121 -24 22 -39 30 -39 21 0 -35 91 -88 150 -88
            36 0 96 23 123 48 32 28 57 89 57 135 0 117 -119 208 -229 176z"/>
            <path d="M228 475 c-7 -15 -24 -29 -42 -33 -37 -10 -45 -36 -20 -63 12 -13 17
            -32 16 -53 -4 -39 15 -51 53 -34 19 8 31 8 50 0 38 -17 57 -5 53 34 -1 21 4
            40 16 53 25 27 17 53 -20 63 -18 4 -35 18 -42 33 -7 15 -20 25 -32 25 -12 0
            -25 -10 -32 -25z m53 -19 c8 -16 23 -26 46 -31 l35 -6 -21 -23 c-13 -14 -21
            -35 -21 -59 0 -35 -12 -48 -25 -27 -8 13 -62 13 -70 0 -13 -21 -25 -8 -25 27
            0 24 -8 45 -21 59 l-21 23 35 6 c23 5 38 15 46 31 6 13 15 24 21 24 6 0 15
            -11 21 -24z"/>
        </g>
    </symbol>
    <symbol id="check">
        <g transform="translate(0.000000,64.000000) scale(0.100000,-0.100000)">
            <path d="M220 623 c-265 -93 -297 -447 -52 -581 104 -57 241 -53 322 8 41 31
            15 34 -44 5 -43 -21 -69 -27 -124 -27 -112 0 -202 52 -260 151 -24 41 -27 56
            -27 141 0 85 3 100 27 141 29 50 79 98 131 126 24 14 55 18 127 18 85 0 100
            -3 141 -27 99 -58 151 -148 151 -260 0 -54 -6 -81 -26 -122 -29 -59 -31 -66
            -16 -66 5 0 22 24 37 53 24 45 28 64 28 137 0 79 -3 90 -36 150 -76 138 -236
            203 -379 153z"/>
            <path d="M353 408 l-72 -72 -29 27 c-15 15 -33 27 -38 27 -5 0 -28 -18 -49
            -40 l-39 -40 76 -77 77 -77 118 117 118 117 -45 45 -45 45 -72 -72z m105 9
            l22 -23 -100 -99 -100 -99 -60 59 -60 59 25 25 25 25 33 -32 33 -32 69 70 c38
            39 74 70 80 70 7 0 21 -10 33 -23z"/>
            <path d="M530 100 c0 -5 5 -10 10 -10 6 0 10 5 10 10 0 6 -4 10 -10 10 -5 0
            -10 -4 -10 -10z"/>
        </g>
    </symbol>
    <symbol id="happy">
        <g transform="translate(0.000000,60.000000) scale(0.100000,-0.100000)">
            <path d="M67 572 c-21 -23 -22 -82 -2 -108 21 -28 18 -44 -9 -44 -37 0 -56
            -25 -56 -76 l0 -44 86 0 c54 0 83 4 79 10 -3 6 -38 10 -76 10 l-70 0 3 38 c3
            35 5 37 41 40 31 3 37 7 37 26 0 12 -7 31 -15 42 -15 20 -19 61 -9 88 8 22 80
            22 88 0 10 -27 6 -68 -9 -88 -8 -11 -15 -30 -15 -43 0 -20 5 -23 34 -23 42 0
            54 -15 32 -39 -10 -11 -16 -36 -16 -69 l0 -52 130 0 130 0 0 52 c0 33 -6 58
            -16 69 -22 24 -10 39 32 39 29 0 34 3 34 23 0 13 -7 32 -15 43 -15 20 -19 61
            -9 88 8 22 80 22 88 0 10 -27 6 -68 -9 -88 -8 -11 -15 -30 -15 -42 0 -19 6
            -23 38 -26 35 -3 37 -5 40 -40 l3 -38 -70 0 c-38 0 -73 -4 -76 -10 -4 -6 25
            -10 79 -10 l86 0 0 44 c0 51 -19 76 -56 76 -27 0 -30 16 -9 44 21 28 19 89 -3
            109 -25 23 -85 22 -105 -1 -21 -23 -22 -82 -2 -108 22 -28 18 -44 -10 -44 -14
            0 -33 -9 -42 -20 -19 -21 -53 -27 -53 -9 0 6 9 22 20 36 38 49 14 142 -37 143
            -7 0 -13 -4 -13 -10 0 -5 7 -10 15 -10 37 0 47 -82 14 -124 -24 -31 -22 -60 6
            -64 64 -9 65 -10 65 -57 l0 -45 -110 0 -110 0 0 45 c0 47 1 48 65 57 28 4 30
            33 6 64 -33 42 -23 124 14 124 8 0 15 5 15 10 0 6 -6 10 -13 10 -50 0 -73 -86
            -38 -143 11 -19 21 -37 21 -41 0 -14 -38 -5 -55 14 -10 11 -29 20 -42 20 -26
            0 -29 16 -8 44 21 28 19 89 -3 109 -25 23 -85 22 -105 -1z"/>
            <path d="M96 232 c-12 -23 -24 -32 -41 -32 -33 0 -38 -14 -14 -36 16 -14 19
            -26 14 -53 -6 -32 -5 -33 17 -26 31 10 59 10 81 1 14 -7 17 -3 17 26 0 22 7
            42 20 53 23 21 18 35 -15 35 -15 0 -30 11 -43 32 l-20 31 -16 -31z m62 -52
            c12 0 13 -3 4 -12 -7 -7 -12 -21 -12 -33 0 -17 -6 -21 -35 -21 -24 0 -35 5
            -35 15 0 8 -7 23 -17 33 -15 17 -15 18 1 18 9 0 24 9 33 20 17 19 17 19 30 0
            8 -11 22 -20 31 -20z"/>
            <path d="M515 230 c-10 -20 -23 -30 -39 -30 -34 0 -39 -11 -15 -36 17 -18 20
            -30 15 -55 -6 -29 -4 -31 17 -24 30 10 58 10 80 1 14 -7 17 -3 17 26 0 22 7
            42 20 53 23 21 18 35 -15 35 -17 0 -29 9 -40 30 -9 17 -18 30 -20 30 -2 0 -11
            -13 -20 -30z m63 -50 c12 0 13 -3 4 -12 -7 -7 -12 -21 -12 -33 0 -17 -6 -21
            -35 -21 -24 0 -35 5 -35 15 0 8 -7 23 -17 33 -15 17 -15 18 1 18 9 0 24 9 34
            20 l17 21 14 -21 c7 -11 21 -20 29 -20z"/>
            <path d="M305 160 c-11 -21 -23 -30 -40 -30 -33 0 -38 -14 -14 -36 16 -14 19
            -26 14 -53 -6 -32 -5 -33 17 -26 31 10 59 10 81 1 14 -7 17 -3 17 26 0 22 7
            42 20 53 23 21 18 35 -15 35 -17 0 -29 9 -40 30 -9 17 -18 30 -20 30 -2 0 -11
            -13 -20 -30z m63 -50 c12 0 13 -3 4 -12 -7 -7 -12 -21 -12 -33 0 -17 -6 -21
            -35 -21 -24 0 -35 5 -35 15 0 8 -7 23 -17 33 -15 17 -15 18 5 18 12 0 26 9 33
            21 l11 21 14 -21 c9 -12 23 -21 32 -21z"/>
        </g>
    </symbol>
    <symbol id="hearts">
            <g transform="translate(0.000000,738.000000) scale(0.100000,-0.100000)">
            <path d="M8045 7374 c-169 -23 -338 -138 -411 -278 -20 -39 -34 -55 -44 -52
            -8 3 -41 15 -74 26 -253 91 -520 -7 -659 -241 -53 -90 -78 -176 -84 -294 -15
            -294 150 -586 440 -777 50 -32 198 -113 329 -179 227 -114 380 -200 457 -257
            32 -23 220 -173 262 -209 14 -12 19 3 48 149 50 251 91 367 249 704 148 316
            192 464 192 652 0 412 -257 731 -610 755 -36 3 -78 3 -95 1z m-621 -481 l28
            -5 -43 -25 c-202 -114 -263 -382 -143 -620 71 -142 266 -344 502 -520 110 -83
            120 -93 52 -54 -30 18 -145 77 -255 133 -110 55 -236 124 -281 154 -185 122
            -304 309 -320 506 -15 170 70 334 207 404 81 40 147 48 253 27z"/>
            <path d="M4605 6654 c-16 -2 -66 -9 -110 -15 -112 -14 -285 -61 -407 -108
            -221 -87 -416 -213 -587 -376 -173 -167 -292 -328 -390 -529 -50 -102 -131
            -323 -131 -358 0 -9 -3 -19 -7 -21 -5 -3 -51 24 -103 59 -334 224 -771 339
            -1156 305 -855 -76 -1529 -689 -1675 -1521 -75 -430 3 -858 237 -1297 120
            -224 255 -406 438 -588 252 -251 498 -418 921 -627 256 -126 370 -175 1015
            -433 582 -233 816 -335 1130 -491 347 -174 614 -333 899 -535 85 -60 158 -109
            161 -109 4 0 31 93 59 207 160 636 387 1161 921 2138 558 1021 728 1436 802
            1965 19 140 17 498 -5 635 -37 241 -109 478 -202 670 -255 528 -752 902 -1335
            1006 -110 20 -399 34 -475 23z m-2530 -1400 c50 -7 110 -19 134 -26 l45 -13
            -70 -29 c-286 -119 -536 -328 -706 -592 -88 -137 -171 -353 -204 -529 -28
            -146 -25 -423 4 -558 95 -431 358 -821 857 -1266 405 -362 818 -648 1700
            -1179 357 -215 466 -286 523 -340 60 -56 28 -46 -70 21 -416 288 -884 519
            -1743 860 -630 250 -880 364 -1133 516 -339 204 -597 449 -774 734 -114 183
            -214 426 -260 629 -20 89 -23 129 -23 298 1 162 5 212 23 297 116 533 488 952
            997 1122 227 75 453 93 700 55z"/>
            <path d="M7565 4284 c-177 -39 -321 -120 -461 -259 -113 -112 -173 -202 -234
            -347 -84 -201 -117 -389 -106 -602 11 -236 51 -388 222 -844 212 -564 257
            -726 309 -1122 9 -69 18 -126 19 -127 2 -2 61 38 131 88 288 204 547 334 994
            499 515 190 778 338 966 542 155 170 279 409 314 612 14 77 14 265 0 342 -43
            248 -188 464 -389 584 -36 22 -108 54 -160 72 -89 30 -103 32 -235 33 -150 0
            -210 -11 -329 -61 -98 -41 -90 -43 -110 28 -40 144 -158 319 -280 413 -71 55
            -199 119 -281 141 -87 23 -283 27 -370 8z m277 -229 c113 -23 193 -68 278
            -154 41 -42 84 -91 94 -110 l19 -34 -29 8 c-213 54 -333 42 -509 -48 -94 -48
            -229 -177 -284 -269 -168 -288 -185 -689 -56 -1408 45 -254 48 -276 30 -210
            -43 152 -86 279 -180 530 -159 426 -197 560 -211 750 -19 272 86 576 257 747
            173 172 383 243 591 198z m-435 -2307 c-3 -8 -6 -5 -6 6 -1 11 2 17 5 13 3 -3
            4 -12 1 -19z m10 -50 c-3 -7 -5 -2 -5 12 0 14 2 19 5 13 2 -7 2 -19 0 -25z
            m10 -50 c-3 -7 -5 -2 -5 12 0 14 2 19 5 13 2 -7 2 -19 0 -25z m10 -50 c-3 -7
            -5 -2 -5 12 0 14 2 19 5 13 2 -7 2 -19 0 -25z m10 -70 c-3 -7 -5 -2 -5 12 0
            14 2 19 5 13 2 -7 2 -19 0 -25z"/>
        </g>
    </symbol>
</svg>
