<?xml version="1.0" standalone="no"?>
<!DOCTYPE svg PUBLIC "-//W3C//DTD SVG 20010904//EN"
 "http://www.w3.org/TR/2001/REC-SVG-20010904/DTD/svg10.dtd">
<svg version="1.0" xmlns="http://www.w3.org/2000/svg">
<!-- facebook -->
    <symbol id="facebook">
            <g transform="translate(0.000000,980.000000) scale(0.100000,-0.100000)">
                <path d="M1135 9784 c-299 -47 -570 -191 -779 -415 -169 -182 -282 -405 -333
                -657 -17 -82 -18 -288 -18 -3807 0 -4051 -4 -3772 57 -3964 68 -215 173 -387
                332 -547 188 -188 394 -300 671 -367 l90 -21 2188 -3 2187 -3 0 2095 0 2095
                -420 0 -420 0 0 725 0 725 420 0 420 0 0 463 c0 645 15 840 85 1112 117 459
                374 790 749 966 174 81 406 145 615 169 49 6 405 10 829 10 l742 0 0 -720 0
                -720 -447 0 c-485 0 -533 -4 -632 -55 -104 -52 -164 -130 -197 -256 -14 -54
                -18 -135 -21 -516 l-5 -453 663 0 662 0 -6 -47 c-3 -27 -38 -353 -78 -725
                l-73 -678 -583 0 -583 0 0 -2096 0 -2095 693 4 c661 3 696 4 785 24 278 64
                487 177 678 367 193 194 312 417 371 696 17 81 18 267 18 3810 0 3533 -1 3730
                -18 3812 -52 256 -168 480 -345 669 -187 198 -412 325 -697 392 l-90 22 -3710
                1 c-3133 2 -3724 0 -3800 -12z"/>
            </g>
        
    </symbol>
<!-- twitter -->
    <symbol id="twitter">
            <g transform="translate(0.000000,319.000000) scale(0.100000,-0.100000)">
                <path d="M2390 3171 c-205 -58 -331 -141 -431 -285 -99 -141 -145 -321 -136
                -538 l5 -128 -85 0 c-381 0 -894 270 -1360 715 l-123 117 -21 -49 c-12 -26
                -32 -91 -46 -143 -35 -129 -37 -335 -5 -451 37 -136 103 -249 211 -361 l64
                -68 -34 0 c-78 0 -171 35 -258 97 l-24 18 6 -95 c19 -257 124 -479 287 -602
                60 -45 195 -112 250 -123 30 -7 32 -9 15 -15 -42 -16 -190 -22 -234 -10 -24 6
                -46 9 -49 6 -9 -10 27 -127 60 -191 67 -134 163 -228 303 -296 81 -39 215 -79
                267 -79 15 0 28 -4 28 -8 0 -11 -107 -100 -169 -140 -243 -156 -577 -223 -858
                -172 -24 4 -43 4 -43 0 0 -3 17 -20 38 -37 288 -229 687 -346 1127 -330 245
                10 455 46 725 127 166 50 279 104 435 208 460 305 778 751 910 1277 49 194 66
                327 72 557 l6 207 81 64 c81 65 202 182 231 225 l16 22 -181 0 -182 0 57 46
                c116 95 225 258 241 360 3 25 4 47 1 50 -3 3 -36 -14 -73 -37 -148 -90 -325
                -169 -382 -169 -15 0 -47 21 -90 61 -120 110 -295 176 -487 184 -77 4 -115 0
                -165 -14z"/>
            </g>
    </symbol>
<!-- linkedin -->
    <symbol id="linkedin">
            <g transform="translate(0.000000,2000.000000) scale(0.100000,-0.100000)">
                <path d="M1350 19993 c-385 -40 -760 -235 -1000 -518 -169 -200 -270 -405
                -326 -665 -18 -82 -19 -347 -19 -8810 0 -8463 1 -8728 19 -8810 42 -194 105
                -348 202 -497 225 -347 556 -571 982 -666 l97 -21 8650 -4 c6164 -2 8681 0
                8758 8 362 36 694 200 949 468 134 142 232 297 304 484 l34 87 0 8910 0 8909
                -31 89 c-78 222 -191 397 -373 579 -210 209 -425 337 -693 410 -212 58 444 54
                -8913 52 -4733 -1 -8621 -3 -8640 -5z m3327 -2788 c560 -79 1036 -419 1297
                -926 434 -839 108 -1836 -737 -2261 -342 -171 -776 -227 -1146 -147 -504 109
                -953 456 -1183 913 -275 548 -241 1187 90 1681 207 310 515 542 879 664 105
                35 273 73 373 84 89 10 334 5 427 -8z m9297 -4445 c531 -45 972 -156 1356
                -341 271 -130 486 -284 700 -498 219 -220 360 -415 505 -702 261 -514 408
                -1108 480 -1936 39 -451 40 -551 40 -3488 l0 -2850 -1470 0 -1470 0 -6 2690
                c-6 2750 -6 2751 -44 3045 -103 782 -402 1229 -940 1405 -364 119 -904 106
                -1285 -30 -41 -15 -122 -51 -180 -81 -445 -227 -717 -677 -825 -1364 -51 -329
                -49 -195 -52 -3002 l-4 -2608 -1499 0 -1500 0 0 4750 0 4750 1415 0 1415 0 0
                -640 0 -640 28 0 c23 0 32 9 55 55 121 230 350 513 575 708 536 465 1203 730
                1977 787 140 10 554 4 729 -10z m-8086 -5037 l-3 -4778 -1470 0 -1470 0 -3
                4778 -2 4777 1475 0 1475 0 -2 -4777z"/>
            </g>
    </symbol>
<!-- github -->
    <symbol id="github">
            <g transform="translate(0.000000,450.000000) scale(0.100000,-0.100000)">
                <path d="M2045 4478 c-249 -28 -524 -110 -757 -225 -459 -227 -813 -582 -1043
                -1045 -252 -507 -305 -1096 -148 -1653 190 -675 726 -1255 1396 -1511 117 -45
                177 -46 218 -5 l29 29 0 222 0 222 -32 -6 c-18 -3 -85 -9 -148 -12 -214 -12
                -360 36 -486 161 -61 61 -79 88 -136 205 -71 146 -139 233 -227 292 -70 47
                -101 79 -101 104 0 19 8 25 42 35 89 24 216 -19 315 -105 28 -25 76 -83 106
                -128 30 -46 75 -102 100 -125 123 -114 288 -140 485 -78 l80 25 16 70 c19 85
                53 153 101 202 42 43 54 36 -101 62 -185 32 -381 105 -501 187 -264 181 -396
                479 -397 899 -1 152 2 186 22 260 29 107 96 248 156 325 26 32 44 64 42 69
                -33 75 -41 129 -40 261 0 113 4 156 23 225 32 121 32 120 100 120 121 0 324
                -76 492 -185 l72 -46 131 25 c177 35 284 46 456 46 172 0 279 -11 455 -45
                l131 -26 92 56 c179 108 361 175 473 175 69 0 68 1 100 -120 33 -120 33 -346
                2 -434 l-21 -59 51 -66 c62 -81 120 -200 149 -306 18 -69 21 -106 22 -265 0
                -338 -69 -569 -230 -765 -128 -157 -362 -276 -642 -326 -64 -11 -127 -23 -140
                -25 l-23 -5 29 -37 c39 -49 77 -125 98 -198 15 -51 18 -114 21 -449 2 -214 5
                -399 8 -411 9 -39 54 -74 97 -74 87 0 396 141 589 269 148 98 247 181 380 317
                341 350 553 784 626 1283 20 142 23 483 5 621 -87 656 -451 1238 -1002 1603
                -294 194 -667 328 -1022 366 -114 13 -399 12 -513 -1z"/>
            </g>
    </symbol>

<!-- user -->
    <symbol id="user">
        <g transform="translate(0.000000,2503.000000) scale(0.100000,-0.100000)">
            <path d="M12050 25000 c-1333 -92 -2558 -512 -3640 -1247 -2320 -1579 -3527
            -4330 -3119 -7108 227 -1542 942 -2965 2049 -4076 1381 -1385 3218 -2149 5170
            -2149 2264 0 4375 1036 5771 2832 649 834 1124 1842 1349 2863 225 1020 235
            2034 30 3055 -506 2520 -2342 4614 -4774 5446 -569 195 -1098 307 -1731 370
            -187 18 -909 27 -1105 14z"/>
            <path d="M6835 11089 c-1835 -983 -3427 -2436 -4601 -4199 -1221 -1833 -1959
            -3924 -2169 -6145 -18 -199 -45 -598 -45 -682 l0 -63 12490 0 12490 0 0 68 c0
            84 -16 330 -36 567 -147 1718 -610 3358 -1380 4885 -1074 2131 -2701 3919
            -4698 5165 -219 137 -580 344 -757 435 l-125 63 -116 -96 c-432 -354 -955
            -696 -1483 -968 -1071 -551 -2215 -860 -3438 -930 -237 -13 -896 -7 -1102 11
            -1163 99 -2174 379 -3166 876 -580 290 -1169 673 -1617 1051 -35 29 -66 53
            -70 53 -4 0 -83 -41 -177 -91z"/>
        </g>
    </symbol>
<!-- envelope -->
    <symbol id="envelope">
            <g transform="translate(0.000000,483.000000) scale(0.100000,-0.100000)">
                <path d="M376 4809 c-134 -33 -301 -126 -282 -157 4 -7 735 -643 1624 -1414
                889 -771 1645 -1428 1680 -1459 106 -99 203 -110 316 -39 91 58 3445 2872
                3454 2897 6 20 -93 109 -152 137 -126 60 110 56 -3371 55 -3128 0 -3192 -1
                -3269 -20z"/>
                <path d="M6640 3679 c-360 -303 -904 -761 -1208 -1016 -304 -256 -552 -469
                -550 -474 2 -5 539 -433 1193 -953 733 -581 1193 -939 1197 -933 27 43 29 194
                26 2035 l-3 1893 -655 -552z"/>
                <path d="M1 2313 c1 -1881 3 -1999 32 -2006 10 -3 2337 1843 2337 1853 0 6
                -2142 1870 -2341 2038 l-29 24 1 -1909z"/>
                <path d="M4112 1560 c-268 -223 -410 -335 -445 -350 -67 -29 -150 -25 -200 11
                -20 13 -186 155 -371 316 -184 161 -343 298 -354 304 -16 10 -156 -98 -1163
                -896 -629 -499 -1153 -916 -1164 -926 -19 -19 38 -19 3230 -19 3197 0 3249 0
                3230 19 -38 36 -2356 1871 -2363 1870 -4 0 -184 -148 -400 -329z"/>
            </g>
    </symbol>

<!-- address -->
    <symbol id="address">
        <g transform="translate(0.000000,747.000000) scale(0.100000,-0.100000)">
            <path d="M2570 7463 c-120 -9 -347 -48 -484 -82 -464 -119 -883 -355 -1234
            -695 -451 -438 -719 -964 -819 -1606 -14 -89 -18 -175 -18 -380 0 -205 4 -291
            18 -380 72 -466 233 -865 496 -1235 35 -50 475 -720 978 -1490 503 -770 930
            -1419 949 -1441 66 -82 183 -142 294 -151 133 -11 263 39 352 136 44 48 1834
            2768 1902 2892 12 21 51 82 87 136 468 693 592 1596 329 2393 -381 1151 -1457
            1923 -2660 1908 -80 -1 -165 -3 -190 -5z m540 -1186 c135 -32 213 -59 330
            -113 267 -125 519 -360 668 -622 394 -690 187 -1574 -473 -2017 -404 -270
            -925 -334 -1375 -168 -499 184 -861 604 -976 1133 -26 120 -27 467 -1 590 134
            637 627 1112 1262 1215 143 23 430 14 565 -18z"/>
        </g>
    </symbol>
<!-- phone talk -->
    <symbol id="phonetalk">
        <g transform="translate(0.000000,976.000000) scale(0.100000,-0.100000)">
            <path d="M1245 9754 c-568 -14 -993 -77 -1088 -162 -125 -111 -181 -479 -147
            -960 75 -1054 474 -2490 970 -3491 869 -1754 2121 -3070 3795 -3990 186 -103
            593 -304 740 -366 1467 -622 3531 -967 4025 -673 46 28 60 43 87 98 85 170
            127 595 127 1270 0 538 -22 859 -76 1110 -41 192 -70 235 -203 296 -118 54
            -217 73 -470 89 -475 29 -723 65 -1580 226 l-530 99 -535 -532 c-294 -293
            -596 -593 -671 -666 l-136 -134 -253 127 c-346 173 -417 217 -682 423 -626
            486 -1678 1545 -2147 2162 -151 198 -204 286 -352 582 l-143 287 74 78 c41 43
            339 347 663 675 l588 597 -100 538 c-163 874 -201 1148 -221 1576 -12 254 -28
            346 -77 440 -44 84 -94 128 -198 177 -133 62 -290 92 -574 109 -180 11 -693
            19 -886 15z"/>
            <path d="M5094 9750 c-92 -10 -134 -35 -166 -100 -15 -30 -32 -84 -38 -120 -5
            -36 -10 -232 -10 -436 l0 -371 138 -27 c451 -90 827 -171 946 -206 367 -107
            754 -294 1076 -518 399 -279 827 -721 1045 -1081 116 -192 253 -486 344 -741
            73 -205 118 -387 206 -820 48 -234 89 -433 91 -442 5 -17 39 -18 541 -18 l535
            0 -6 33 c-3 17 -31 200 -61 405 -31 205 -64 416 -75 468 -127 618 -400 1245
            -788 1814 -445 653 -1070 1240 -1632 1534 -677 353 -1761 670 -2146 626z"/>
            <path d="M4882 7178 c4 -419 5 -435 27 -503 18 -56 33 -80 75 -121 56 -55 108
            -77 296 -129 52 -14 149 -52 215 -84 204 -98 357 -213 545 -407 218 -226 331
            -419 399 -681 22 -84 50 -171 62 -195 27 -55 74 -105 123 -130 84 -43 150 -50
            579 -55 405 -5 407 -5 407 15 0 47 -112 616 -144 732 -139 507 -472 1007 -901
            1353 -291 235 -657 420 -1005 507 -94 24 -645 130 -673 130 -5 0 -7 -195 -5
            -432z"/>
        </g>
    </symbol>



<!-- phone -->
    <symbol id="phone">
        <g transform="translate(0.000000,934.000000) scale(0.100000,-0.100000)">
            <path d="M1895 9315 c-146 -40 -360 -135 -495 -221 -194 -123 -560 -425 -736
            -605 -208 -214 -353 -412 -470 -641 -158 -310 -213 -606 -166 -883 110 -638
            658 -1711 1386 -2710 880 -1209 1844 -2118 3123 -2943 743 -479 1523 -879
            2175 -1113 158 -56 397 -124 552 -156 117 -24 152 -27 336 -27 226 0 310 12
            500 74 450 148 1052 610 1404 1076 151 202 232 353 278 520 28 103 31 305 5
            373 -34 89 -111 187 -281 356 -176 175 -306 288 -604 519 -376 292 -891 634
            -1158 768 l-162 81 -102 5 c-319 15 -448 -117 -823 -843 -164 -319 -203 -379
            -300 -472 -201 -190 -445 -254 -672 -174 -95 33 -484 263 -790 466 -497 329
            -850 620 -1311 1080 -536 535 -870 966 -1093 1410 -81 161 -92 194 -98 300 -7
            116 14 214 67 322 82 165 166 221 595 394 289 115 627 312 757 440 134 131
            166 268 104 448 -81 238 -344 725 -587 1086 -286 427 -497 670 -738 850 -107
            80 -336 199 -422 220 -78 18 -207 18 -274 0z"/>
        </g>
    </symbol>
<!-- menubar -->
    <symbol id="menubar">
        <g transform="translate(0.000000,1250.000000) scale(0.100000,-0.100000)">
            <path d="M1065 12485 c-410 -65 -747 -311 -933 -680 -91 -180 -127 -337 -127
            -555 0 -111 5 -179 18 -240 55 -258 162 -455 347 -640 185 -185 381 -291 640
            -347 82 -17 374 -18 7740 -18 7366 0 7658 1 7740 18 243 52 443 156 616 320
            113 107 194 217 265 362 198 405 166 864 -89 1250 -61 91 -238 268 -328 328
            -139 91 -281 152 -454 194 -72 17 -385 18 -7715 19 -6161 2 -7655 0 -7720 -11z"/>
            <path d="M1065 7485 c-410 -65 -747 -311 -933 -680 -91 -180 -127 -337 -127
            -555 0 -111 5 -179 18 -240 55 -258 162 -455 347 -640 185 -185 381 -291 640
            -347 82 -17 374 -18 7740 -18 7366 0 7658 1 7740 18 243 52 443 156 616 320
            113 107 194 217 265 362 198 405 166 864 -89 1250 -61 91 -238 268 -328 328
            -139 91 -281 152 -454 194 -72 17 -385 18 -7715 19 -6161 2 -7655 0 -7720 -11z"/>
            <path d="M1065 2485 c-410 -65 -747 -311 -933 -680 -91 -180 -127 -337 -127
            -555 0 -111 5 -179 18 -240 55 -258 162 -455 347 -640 185 -185 381 -291 640
            -347 82 -17 374 -18 7740 -18 7366 0 7658 1 7740 18 243 52 443 156 616 320
            113 107 194 217 265 362 198 405 166 864 -89 1250 -61 91 -238 268 -328 328
            -139 91 -281 152 -454 194 -72 17 -385 18 -7715 19 -6161 2 -7655 0 -7720 -11z"/>
        </g>
    </symbol>
    
</svg>
